<svg xmlns="http://www.w3.org/2000/svg" id="Layer_1" x="0" y="0" viewBox="0 0 49.2 50" xml:space="preserve"><style>.st0{fill:#a8dba8}.st1{fill:#cff09e}.st3{fill:#3b8686}</style><path class="st0" d="M.8 45.9h47.5v3.3H.8v-3.3zM13.1 32.8c1.8 0 3.3 1.5 3.3 3.3v6.6H9.8v-6.6c0-1.8 1.5-3.3 3.3-3.3z"></path><path class="st1" d="M9 44.3c-.9 0-1.6-.7-1.6-1.6h-.8c-.9 0-1.6.7-1.6 1.6v1.6h16.4v-1.6H9zM9.8 36.1c0-1.8 1.5-3.3 3.3-3.3h-1.6c-1 0-2 .5-2.6 1.3-2.5-1.9-3.9-4.8-4-7.9V23H.8v16.4h9v-3.3zM16.4 36.1h9v3.3h-9v-3.3z"></path><path d="M41.8 31.1H28.7c-1.8 0-3.3 1.5-3.3 3.3V41h4.9v4.9h9.8V41H45v-6.6c.1-1.8-1.4-3.3-3.2-3.3z" fill="#79bd9a"></path><path class="st0" d="M39.3 13.1H25.4v5.7c0 2.2 1.3 4.2 3.3 5.2v-6h13.1v6c2.9-1.4 4.1-4.8 2.7-7.6-.9-2-2.9-3.3-5.2-3.3z"></path><path class="st1" d="M31.1 24.6V23c0-1.4 1.1-2.5 2.5-2.5h8.2V18H28.7v6.6c0 3.6 2.9 6.6 6.6 6.6.4 0 .8 0 1.2-.1-3.1-.7-5.3-3.4-5.4-6.5zM41.8 42.6V41h-1.6v4.9h4.9v-1.6h-1.6c-1 0-1.7-.8-1.7-1.7zM28.7 42.6V41h1.6v4.9h-4.9v-1.6H27c1 0 1.7-.8 1.7-1.7z"></path><path class="st1" d="M35.2 31.1c-1.2 0-2.3-.3-3.3-.9v.9c0 1.8 1.5 3.3 3.3 3.3 1.8 0 3.3-1.5 3.3-3.3v-.9c-1 .6-2.1.9-3.3.9z"></path><path class="st0" d="M31.1.8h-27C2.3.8.8 2.3.8 4.1v6.6c0 1.8 1.5 3.3 3.3 3.3h.8l8.2 5.7V14h18c1.8 0 3.3-1.5 3.3-3.3V4.1c0-1.8-1.4-3.3-3.3-3.3z"></path><path class="st1" d="M7.3 4l1 2 2.3.3-1.7 1.6.4 2.3-2-1.1-2 1.1.4-2.3L4 6.3 6.3 6l1-2zM17.1 4l1 2 2.3.3-1.6 1.6.4 2.3-2-1.1-2 1.1.4-2.3L14 6.3l2.1-.3 1-2zM27 4l1 2 2.3.3-1.6 1.6.4 2.3-2-1.1-2 1.1.4-2.3-1.6-1.6 2-.3L27 4z"></path><path class="st3" d="M48.4 45.1h-2.5V34.4c0-2.3-1.8-4.1-4.1-4.1h-1.9c1.7-1.4 2.8-3.5 2.8-5.7v-.1c3.1-1.8 4.2-5.9 2.3-9-1.2-2-3.3-3.2-5.6-3.2H35c.2-.5.3-1.1.3-1.6V4.1c0-2.3-1.8-4.1-4.1-4.1h-27C1.8 0 0 1.8 0 4.1v6.6c0 2.3 1.8 4.1 4.1 4.1h.6l8 5.6c.1.1.3.1.5.1.1 0 .3 0 .4-.1.3-.1.4-.4.4-.7v-4.9h10.7v4.1c0 1.2.3 2.3.9 3.3H.8c-.4-.1-.8.3-.8.8v16.4c0 .5.4.8.8.8H9v1.6H6.6c-1.4 0-2.5 1.1-2.5 2.5v.8H.8c-.5 0-.8.4-.8.8v3.3c0 .4.4.8.8.8s.8-.4.8-.8v-2.5h45.9v2.5c0 .5.4.8.8.8.5 0 .8-.4.8-.8v-3.3c.1-.5-.3-.8-.7-.8zM41 41.8h3.3v3.3H41v-3.3zm3.3-7.4v5.7H41v-3.3c0-.5-.4-.8-.8-.8-.5 0-.8.4-.8.8V45h-8.2v-8.2c0-.5-.4-.8-.8-.8s-.8.4-.8.8v3.3h-3.3v-5.7c0-1.4 1.1-2.5 2.5-2.5h2.5c.5 2.2 2.6 3.7 4.8 3.2 1.6-.3 2.9-1.6 3.2-3.2h2.5c1.4.1 2.5 1.2 2.5 2.5zm-24.6 7.4h-2.5v-1.6h7.4v4.9h-2.5v-.8c0-1.4-1.1-2.5-2.4-2.5zm6.5 0h3.3v3.3h-3.3v-3.3zm6.6-10.3c1.6.6 3.3.6 4.8 0-.2 1.3-1.5 2.2-2.9 2-.9-.2-1.7-.9-1.9-2zm8.2-6.9c0 3.2-2.6 5.7-5.7 5.7-3.2 0-5.7-2.6-5.7-5.7v-5.7H41v5.7zM13.1 13.1c-.5 0-.8.4-.8.8v4.2l-6.9-4.8c-.1-.1-.3-.2-.5-.1h-.8c-1.4 0-2.5-1.1-2.5-2.5V4.1c0-1.4 1.1-2.5 2.5-2.5h27c1.4 0 2.5 1.1 2.5 2.5v6.6c0 1.4-1.1 2.5-2.5 2.5h-18zm18 1.7c.9 0 1.8-.3 2.5-.8h5.7c2.7 0 4.9 2.2 4.9 4.9 0 1.4-.6 2.7-1.6 3.6V18c0-.5-.4-.8-.8-.8H28.7c-.5 0-.8.4-.8.8v4.5c-1-.9-1.6-2.3-1.6-3.7v-4.1l4.8.1zm-3.2 9.7c0 2.3 1 4.4 2.8 5.8h-1.9c-.9 0-1.8.3-2.5.8v-8c.4.6 1 1.1 1.6 1.4zm-26.3 14V23.8h23v14.8h-7.4v-2.5c0-2.3-1.8-4.1-4.1-4.1S9 33.8 9 36.1v2.5H1.6zm9.1-2.4c0-1.4 1.1-2.5 2.5-2.5s2.5 1.1 2.5 2.5v5.7h-4.9v-5.7zm-5 9v-.8c0-.5.4-.8.8-.8h13.1c.5 0 .8.4.8.8v.8H5.7z"></path><circle class="st3" cx="32.8" cy="22.1" r=".8"></circle><circle class="st3" cx="37.7" cy="22.1" r=".8"></circle><path class="st3" d="M10.7 5.5l-1.9-.2L8 3.6c-.2-.4-.7-.6-1.1-.4-.2.1-.3.3-.4.4l-.8 1.7-1.8.2c-.3 0-.6.3-.7.6-.1.3 0 .6.2.8l1.3 1.3-.2 1.8c-.1.3.1.6.3.8.2.2.6.3.8.1l1.7-.9 1.6.9c.3.2.7.1.9-.1.3-.2.4-.5.3-.8l-.3-1.8 1.3-1.3c.2-.2.3-.5.2-.8 0-.3-.3-.6-.6-.6zM8.4 7.4c-.2.2-.3.4-.3.7l.1.6-.5-.3c-.2 0-.3-.1-.4-.1-.1 0-.3 0-.4.1l-.6.3.1-.6c0-.3 0-.5-.2-.7l-.5-.5.6-.1c.3 0 .5-.2.6-.5l.3-.6.3.6c.1.2.3.4.6.5l.6.1-.3.5zM20.5 5.5l-1.8-.3-.8-1.6c-.2-.4-.7-.6-1.1-.4-.2.1-.3.2-.4.4l-.8 1.6-1.8.3c-.3 0-.6.3-.7.6-.1.3 0 .6.2.8l1.3 1.3-.3 1.8c-.1.3.1.6.3.8.3.2.6.2.9.1l1.6-.9 1.6.9c.3.2.7.1.9-.1.3-.2.4-.5.3-.8l-.3-1.8L21 6.9c.2-.2.3-.5.2-.8-.1-.3-.4-.6-.7-.6zm-2.3 1.9c-.2.2-.3.4-.2.7l.1.6-.6-.3c-.1-.1-.2-.1-.4-.1-.1 0-.3 0-.4.1l-.6.3.1-.6c0-.3 0-.5-.2-.7l-.5-.5.6-.1c.3 0 .5-.2.6-.5l.3-.6.3.6c.1.2.3.4.6.5l.6.1-.3.5zM30.3 5.5l-1.8-.3-.8-1.6c-.2-.4-.7-.6-1.1-.4-.2.1-.3.2-.4.4l-.8 1.6-1.8.3c-.3 0-.6.3-.7.6-.1.3 0 .6.2.8l1.3 1.3-.3 1.8c-.1.3.1.6.3.8.3.2.6.2.9.1L27 10l1.6.9c.3.2.7.1.9-.1.3-.2.4-.5.3-.8l-.3-1.8 1.3-1.3c.2-.2.3-.5.2-.8-.1-.3-.3-.6-.7-.6zM28 7.4c-.2.2-.3.5-.2.7l.1.6-.6-.3c-.1-.1-.2-.1-.4-.1-.1 0-.3 0-.4.1l-.5.3.1-.6c0-.3 0-.5-.2-.7l-.5-.5.6-.1c.3 0 .5-.2.6-.5l.3-.6.3.6c.1.2.3.4.6.5l.6.1-.4.5zM18.9 27.9c0-.5-.4-.8-.8-.8H8.2c-.5 0-.8.4-.8.8s.4.8.8.8H18c.5 0 .9-.4.9-.8z"></path></svg>