<svg xmlns="http://www.w3.org/2000/svg" id="Layer_1" x="0" y="0" viewBox="0 0 62.5 50.7" xml:space="preserve"><style>.st3{fill:#3b8686}</style><g id="Twotone"><g id="Color_copy_2"><path d="M20.8 29.2V15.6h-7.3C6.6 15.6 1.1 21.2 1 28.1c0 5.7 3.8 10.7 9.4 12.1v8.7l8.3-8.3h3.1c6.5 0 11.9-5 12.4-11.5.1.1-13.4.1-13.4.1z" fill="#79bd9a"></path><path d="M55.2 1.1H21.9c-3.5 0-6.2 2.8-6.2 6.2v20.8c0 3.5 2.8 6.2 6.2 6.2h17L51 48.9V34.3h4.2c3.5 0 6.2-2.8 6.2-6.2V7.3c0-3.5-2.8-6.2-6.2-6.2zm2.1 27c0 1.2-.9 2.1-2.1 2.1H21.9c-1.2 0-2.1-.9-2.1-2.1V7.3c0-1.2.9-2.1 2.1-2.1h33.3c1.2 0 2.1.9 2.1 2.1v20.8z" fill="#a8dba8"></path><path d="M43.7 25C33.4 25 25 16.6 25 6.3V5.2h-3.1c-1.2 0-2.1.9-2.1 2.1v20.8c0 1.2.9 2.1 2.1 2.1h33.3c1.2 0 2.1-.9 2.1-2.1V25H43.7z" fill="#cff09e"></path></g><g id="Stroke_Close_copy"><path class="st3" d="M55.2 0H21.9c-4 0-7.3 3.3-7.3 7.3v7.3h-1.1C6.1 14.6 0 20.6 0 28.1 0 34 3.8 39.2 9.4 41v8c0 .6.5 1.1 1.1 1.1.3 0 .5-.1.7-.3l8-8h2.6c4.6 0 8.9-2.4 11.4-6.2h5.1l11.8 14.2c.2.2.5.4.8.4.1 0 .2 0 .4-.1.4-.1.7-.5.7-1V35.4h3.1c4 0 7.3-3.3 7.3-7.3V7.3c.1-4-3.2-7.3-7.2-7.3zM21.9 39.6h-3.1c-.3 0-.5.1-.7.3l-6.6 6.6v-6.2c0-.5-.3-.9-.8-1-6.1-1.6-9.8-7.8-8.2-13.9 1.3-5 5.9-8.6 11.1-8.6h1.1v6.3h-4.2c-.6 0-1.1.5-1.1 1.1 0 .6.5 1.1 1.1 1.1h4.2v3.1H7.3c-.6 0-1.1.5-1.1 1.1 0 .6.5 1.1 1.1 1.1h7.6c.4 1.2 1 2.3 1.9 3.1h-5.4c-.6 0-1.1.5-1.1 1.1s.5 1.1 1.1 1.1h19.2c-2.1 2.1-5.3 3.7-8.7 3.7zm38.5-11.5c0 2.9-2.3 5.2-5.2 5.2H51c-.6 0-1.1.5-1.1 1.1v11.7L39.7 33.7c-.2-.2-.5-.4-.8-.4h-17c-2.9 0-5.2-2.3-5.2-5.2V7.3c0-2.9 2.3-5.2 5.2-5.2h33.3c2.9 0 5.2 2.3 5.2 5.2v20.8z"></path><path class="st3" d="M55.2 4.2H21.9c-1.7 0-3.1 1.4-3.1 3.1v20.8c0 1.7 1.4 3.1 3.1 3.1h33.3c1.7 0 3.1-1.4 3.1-3.1V7.3c0-1.7-1.4-3.1-3.1-3.1zm1 23.9c0 .6-.5 1.1-1.1 1.1H21.9c-.6 0-1.1-.5-1.1-1.1V7.3c0-.6.5-1.1 1.1-1.1h33.3c.6 0 1.1.5 1.1 1.1l-.1 20.8z"></path><path class="st3" d="M33.3 10.4h14.6c.6 0 1.1-.5 1.1-1.1 0-.6-.5-1.1-1.1-1.1H33.3c-.6 0-1.1.5-1.1 1.1.1.6.6 1.1 1.1 1.1zM52 13.5H26c-.6 0-1.1.5-1.1 1.1 0 .6.5 1.1 1.1 1.1h26c.6 0 1.1-.5 1.1-1.1 0-.6-.5-1.1-1.1-1.1zM52 18.7H26c-.6 0-1.1.5-1.1 1.1s.5 1.1 1.1 1.1h26c.6 0 1.1-.5 1.1-1.1s-.5-1.1-1.1-1.1zM47.9 23.9H29.2c-.6 0-1.1.5-1.1 1.1 0 .6.5 1.1 1.1 1.1h18.7c.6 0 1.1-.5 1.1-1.1-.1-.6-.5-1.1-1.1-1.1z"></path></g></g></svg>