<svg xmlns="http://www.w3.org/2000/svg" id="Layer_1" x="0" y="0" viewBox="0 0 65.2 50" xml:space="preserve"><style>.st0{fill:#cff09e}.st1{fill:#79bd9a}.st2{fill:#a8dba8}.st3{fill:#3b8686}</style><g id="Twotone"><g id="Color_copy"><path class="st0" d="M40.1 3.3c-.5 1.9-2.2 3.3-4.2 3.3h-3.1c-.1.4-.1.7-.2 1.1v.5l4.3 4.3V7.6h6.5V3.3h-3.3zM33.4 11.8l-5-5H10.9c-1.1 0-2-.8-2.2-1.8-1 .6-1.4 1.9-.8 2.9C8.3 8.6 9 9 9.8 9h17.6l8.1 8.1 3.1-3.1-1-1c-1.6.3-3.1-.1-4.2-1.2zM25 18.5H12v26.1h34.8v-4.3L25 18.5z"></path><path class="st1" d="M40.2 18.5h6.5V25h-6.5v-6.5zM40.2 25h6.5v6.5h-6.5V25zM40.2 31.5h6.5V38h-6.5v-6.5zM40.2 38h6.5v6.5h-6.5V38zM12 18.5h6.5V25H12v-6.5zM12 25h6.5v6.5H12V25zM12 31.5h6.5V38H12v-6.5zM12 38h6.5v6.5H12V38zM23.9 37V26.1l10.9 5.4L23.9 37zM2.2 40.2h3.3V22.8H1.1l1.1 17.4z"></path><path class="st2" d="M45.7 1.1h6.5c2.4 0 4.3 1.9 4.3 4.3s-1.9 4.3-4.3 4.3h-6.5c-2.4 0-4.3-1.9-4.3-4.3-.1-2.4 1.9-4.3 4.3-4.3zM46.7 14.1H12c-3.6 0-6.5 2.9-6.5 6.5v21.7c0 3.6 2.9 6.5 6.5 6.5h34.8c3.6 0 6.5-2.9 6.5-6.5V20.7c0-3.6-3-6.6-6.6-6.6zm0 30.5H12V18.5h34.8v26.1z"></path><path class="st2" d="M64.1 43.5l-10.9-4.3V21.7l10.9-4.3v26.1z"></path></g><g id="Stroke_Close_copy"><path class="st3" d="M46.7 17.4H12c-.6 0-1.1.5-1.1 1.1v26.1c0 .6.5 1.1 1.1 1.1h34.8c.6 0 1.1-.5 1.1-1.1V18.5c-.1-.6-.6-1.1-1.2-1.1zm-29.3 13H13v-4.3h4.3v4.3zM13 32.6h4.3V37H13v-4.4zm6.6-13h19.6v23.9H19.6V19.6zm26.1 10.8h-4.3v-4.3h4.3v4.3zm-4.4 2.2h4.3V37h-4.3v-4.4zm4.4-13v4.3h-4.3v-4.3h4.3zm-32.7 0h4.3v4.3H13v-4.3zm0 23.9v-4.3h4.3v4.3H13zm32.7 0h-4.3v-4.3h4.3v4.3z"></path><path class="st3" d="M35.3 30.5l-10.9-5.4c-.5-.3-1.2-.1-1.5.5-.1.2-.1.3-.1.5V37c0 .6.5 1.1 1.1 1.1.2 0 .3 0 .5-.1l10.9-5.4c.5-.3.8-.9.5-1.5-.1-.3-.3-.4-.5-.6zM25 35.2v-7.4l7.4 3.7-7.4 3.7z"></path><path class="st3" d="M64.7 16.5c-.3-.2-.7-.2-1-.1l-9.4 3.8c-.3-4-3.6-7.1-7.6-7.1H39l-1-1V8.7h3.3c1 1.4 2.6 2.2 4.3 2.2h6.5c3 0 5.4-2.4 5.4-5.4S55.2 0 52.2 0h-6.5c-1.7 0-3.3.8-4.3 2.2H37c-2.3 0-4.4 1.5-5.1 3.6l-1.3-1.3c-.6-.6-1.4-1-2.3-1H9.8C8 3.6 6.5 5 6.5 6.8s1.5 3.3 3.3 3.3h17.1l2.9 2.9H12c-4.2 0-7.6 3.4-7.6 7.6v1.1H1.1c-.6 0-1.1.5-1.1 1.1v.1l1.1 17.4c0 .6.5 1 1.1 1h2.2v1.1c0 4.2 3.4 7.6 7.6 7.6h34.8c4.2 0 7.6-3.4 7.6-7.6v-1.7l9.4 3.8c.3.1.7.1 1-.1.3-.2.5-.5.5-.9V17.4c-.1-.4-.3-.7-.6-.9zm-19-14.3h6.5c1.8 0 3.3 1.5 3.3 3.3S54 8.7 52.2 8.7h-6.5c-1.8 0-3.3-1.5-3.3-3.3s1.5-3.2 3.3-3.2zm-12 5.4c0-1.8 1.5-3.3 3.3-3.3h3.4c-.1.7-.1 1.5 0 2.2H37c-.6 0-1.1.5-1.1 1.1v2.2l-2.2-2.2zm-5.6.6c-.2-.2-.5-.3-.8-.3H9.8c-.6 0-1.1-.5-1.1-1.1s.5-1.1 1.1-1.1h18.5c.3 0 .6.1.8.3l7 7H33l-4.9-4.8zM3.2 39.1l-1-15.2h2.1v15.2H3.2zm49 3.3c0 3-2.4 5.4-5.4 5.4H12c-3 0-5.4-2.4-5.4-5.4V20.7c0-3 2.4-5.4 5.4-5.4h34.8c3 0 5.4 2.4 5.4 5.4v21.7zm10.8-.5l-8.7-3.5V22.5L63 19v22.9z"></path></g></g></svg>