<svg xmlns="http://www.w3.org/2000/svg" id="Layer_1" x="0" y="0" viewBox="0 0 55.6 50" xml:space="preserve"><style>.st0{fill:#79bd9a}.st1{fill:#a8dba8}.st3{fill:#3b8686}</style><path class="st0" d="M17.6 5.6V.9h-13v12h50V5.6h-37z"></path><path class="st1" d="M4.6 9.3h46.3V13H4.6V9.3z"></path><path d="M54.6 13H.9v36.1h53.7v-7.4H27.8c-10.2 0-18.5-8.3-18.5-18.5V13h45.3z" fill="#cff09e"></path><path class="st0" d="M39.8 31.5c0 6.6-5.4 12-12 12s-12-5.4-12-12 5.4-12 12-12 12 5.3 12 12z"></path><path class="st1" d="M31.5 30.6V38h-7.4v-7.4h-3.7l7.4-7.4 7.4 7.4h-3.7z"></path><path class="st3" d="M54.6 4.6H18.5V.9c0-.5-.4-.9-.9-.9h-13c-.5 0-.9.4-.9.9V12H.9c-.5 0-.9.5-.9 1v36.1c0 .5.4.9.9.9h53.7c.5 0 .9-.4.9-.9V5.6c.1-.6-.4-1-.9-1zM16.7 1.9v3.7c0 .5.4.9.9.9h36.1V12h-1.9V9.3c0-.5-.4-.9-.9-.9H5.6V1.9h11.1zM5.6 10.2H50V12H5.6v-1.8zm48.1 37.9H1.9V13.9h51.9v34.2z"></path><path class="st3" d="M27.8 22.2c-.2 0-.5.1-.7.3l-7.4 7.4c-.3.3-.3.7-.2 1 .1.3.5.6.9.6h2.8V38c0 .5.4.9.9.9h7.4c.5 0 .9-.4.9-.9v-6.5h2.8c.4 0 .7-.2.9-.6.1-.3.1-.7-.2-1l-7.4-7.4c-.2-.2-.5-.3-.7-.3zm3.7 7.4c-.5 0-.9.4-.9.9V37H25v-6.5c0-.5-.4-.9-.9-.9h-1.5l5.2-5.2 5.2 5.2h-1.5z"></path><path class="st3" d="M27.8 18.5c-7.2 0-13 5.8-13 13s5.8 13 13 13 13-5.8 13-13-5.9-13-13-13zm0 24.1c-6.1 0-11.1-5-11.1-11.1s5-11.1 11.1-11.1 11.1 5 11.1 11.1-5 11.1-11.1 11.1z"></path></svg>