<svg id="logo" xmlns="http://www.w3.org/2000/svg" width="174.875" height="62" viewBox="0 0 174.875 62">
  <defs>
    <style>
      .cls-1 {
        fill: #f8636b;
      }

      .cls-2 {
        fill: #fff;
        fill-rule: evenodd;
      }
    </style>
  </defs>
  <path id="bg" class="cls-1" d="M15,0H47A15,15,0,0,1,62,15V62a0,0,0,0,1,0,0H15A15,15,0,0,1,0,47V15A15,15,0,0,1,15,0Z"/>
  <path class="cls-2" d="M406.878,8365.75s3.528-4.93,8.615-1.67,6.892,13.97,6.892,13.97l5.251-3.85s-1.372-10.75-8.861-12.8S406.878,8365.75,406.878,8365.75Zm-4.714,19.24s-3.514-4.95,1.1-8.87,15.161-2.37,15.161-2.37l-1.966-6.28s-10.455-1.99-14.677,4.64S402.164,8384.99,402.164,8384.99Zm16.483,10.52s-5.7,1.87-7.934-3.81,2.478-15.44,2.478-15.44l-6.466-.03s-5.089,9.52-.211,15.66S418.647,8395.51,418.647,8395.51Zm14.9-12.74s-0.009,6.11-6,6.52-13.63-7.18-13.63-7.18l-2.029,6.27s7.309,7.87,14.547,5.04S433.549,8382.77,433.549,8382.77Zm-7.274-18.39s5.694,1.9,4.223,7.84-10.9,11-10.9,11l5.212,3.9s9.606-4.65,9.2-12.54S426.275,8364.38,426.275,8364.38Z" transform="translate(-386 -8348)"/>
  <path id="Hosting" class="cls-2" d="M465.16,8390.68h4.62v-10.06h4v10.06h4.62V8368h-4.62v9.29h-4V8368h-4.62v22.68Zm23.072,0.3q3.583,0,5.138-1.89a8.521,8.521,0,0,0,1.554-5.53v-8.48a8.393,8.393,0,0,0-1.554-5.5q-1.554-1.86-5.138-1.86-3.612,0-5.152,1.84a8.488,8.488,0,0,0-1.54,5.52v8.46a8.617,8.617,0,0,0,1.54,5.55q1.539,1.89,5.152,1.89h0Zm0-3.3a1.609,1.609,0,0,1-1.6-.78,5.074,5.074,0,0,1-.392-2.22v-10.72a4.722,4.722,0,0,1,.406-2.17,2.01,2.01,0,0,1,3.164,0,4.735,4.735,0,0,1,.406,2.17v10.72a4.9,4.9,0,0,1-.406,2.2,1.609,1.609,0,0,1-1.582.8h0Zm15.624,3.3a6.341,6.341,0,0,0,3.066-.72,5.237,5.237,0,0,0,2.058-2.01,5.692,5.692,0,0,0,.728-2.89,7.208,7.208,0,0,0-.924-3.71,12.208,12.208,0,0,0-2.548-3.01l-2.3-2.02a8.374,8.374,0,0,1-1.554-1.69,3.48,3.48,0,0,1-.49-1.89,2.222,2.222,0,0,1,.42-1.36,1.385,1.385,0,0,1,1.176-.58,1.358,1.358,0,0,1,1.386.86,8.122,8.122,0,0,1,.406,2.64l4-.58a8.951,8.951,0,0,0-1.372-4.53q-1.2-1.77-4.284-1.77a6.487,6.487,0,0,0-4.522,1.49,5.508,5.508,0,0,0-1.638,4.27,6.523,6.523,0,0,0,.742,3.22,8.89,8.89,0,0,0,2.142,2.52l2.352,2.05a10.154,10.154,0,0,1,1.89,2.06,4.112,4.112,0,0,1,.6,2.28,2.279,2.279,0,0,1-.364,1.33,1.351,1.351,0,0,1-1.176.52,1.749,1.749,0,0,1-1.638-1.03,7.43,7.43,0,0,1-.6-3.17l-3.976.67a8.211,8.211,0,0,0,1.708,5.33,6.039,6.039,0,0,0,4.7,1.72h0Zm10.416-.3h4.648v-19.27h3.444V8368H510.772v3.41h3.5v19.27Zm10.192,0h4.592V8368h-4.592v22.68Zm8.036,0h3.948v-12.55l5.04,12.55H544.6V8368H540.76v11.78L535.72,8368H532.5v22.68Zm21.308,0.33a3.733,3.733,0,0,0,3.724-2.35l0.308,2.02h3.024v-11.65H554.48v2.8h2.212v2.41a5.413,5.413,0,0,1-.49,2.53,1.757,1.757,0,0,1-1.694.91,1.716,1.716,0,0,1-1.68-.85,5.393,5.393,0,0,1-.448-2.45V8374.3a6.359,6.359,0,0,1,.364-2.44,2.024,2.024,0,0,1,3.206-.1,5.757,5.757,0,0,1,.35,2.31v1.6h4.48v-1.32a7.32,7.32,0,0,0-1.484-4.93q-1.485-1.695-4.984-1.7c-2.427,0-4.14.66-5.138,2a9.676,9.676,0,0,0-1.5,5.86v7.59a10.089,10.089,0,0,0,1.414,5.81c0.942,1.36,2.515,2.03,4.718,2.03h0Z" transform="translate(-386 -8348)"/>
</svg>
