<svg id="logo" xmlns="http://www.w3.org/2000/svg" width="174.875" height="62" viewBox="0 0 174.875 62">
  <defs>
    <style>
      .cls-1 {
        fill: #f8636b;
      }

      .cls-2 {
        fill: #fff;
      }

      .cls-2, .cls-3 {
        fill-rule: evenodd;
      }

      .cls-3 {
        fill: #37495d;
      }
    </style>
  </defs>
  <path id="bg" class="cls-1" d="M15,0H47A15,15,0,0,1,62,15V62a0,0,0,0,1,0,0H15A15,15,0,0,1,0,47V15A15,15,0,0,1,15,0Z"/>
  <path class="cls-2" d="M60.878,36.755s3.528-4.937,8.615-1.674,6.892,13.971,6.892,13.971L81.636,45.2S80.264,34.45,72.775,32.4,60.878,36.755,60.878,36.755ZM56.164,55.989s-3.513-4.947,1.1-8.872,15.161-2.366,15.161-2.366L70.46,38.47S60,36.477,55.783,43.107,56.164,55.989,56.164,55.989ZM72.647,66.5s-5.7,1.879-7.934-3.809,2.478-15.434,2.478-15.434l-6.466-.034s-5.089,9.523-.21,15.667S72.647,66.5,72.647,66.5Zm14.9-12.735s-0.008,6.107-6,6.516-13.63-7.172-13.63-7.172l-2.029,6.261s7.31,7.877,14.547,5.044S87.549,53.77,87.549,53.77ZM80.275,35.383s5.694,1.9,4.222,7.837-10.9,11-10.9,11l5.212,3.9s9.606-4.654,9.2-12.548S80.275,35.383,80.275,35.383Z" transform="translate(-40 -19)"/>
  <path id="Hosting" class="cls-3" d="M119.16,61.677h4.62V51.625h4V61.677h4.62V39h-4.62v9.3h-4V39h-4.62v22.68Zm23.072,0.308q3.584,0,5.138-1.89a8.527,8.527,0,0,0,1.554-5.53V46.081a8.409,8.409,0,0,0-1.554-5.5q-1.554-1.862-5.138-1.862-3.612,0-5.152,1.848a8.451,8.451,0,0,0-1.54,5.516v8.456a8.631,8.631,0,0,0,1.54,5.558q1.539,1.89,5.152,1.89h0Zm0-3.3a1.607,1.607,0,0,1-1.6-.784,5.037,5.037,0,0,1-.392-2.212V44.961a4.723,4.723,0,0,1,.406-2.17,2.01,2.01,0,0,1,3.164,0,4.737,4.737,0,0,1,.406,2.17V55.685a4.919,4.919,0,0,1-.406,2.2,1.6,1.6,0,0,1-1.582.8h0Zm15.624,3.3a6.286,6.286,0,0,0,3.066-.728,5.188,5.188,0,0,0,2.058-2,5.739,5.739,0,0,0,.728-2.9,7.225,7.225,0,0,0-.924-3.71,12.347,12.347,0,0,0-2.548-3.01l-2.3-2.016a8.184,8.184,0,0,1-1.554-1.694,3.448,3.448,0,0,1-.49-1.89,2.238,2.238,0,0,1,.42-1.358,1.374,1.374,0,0,1,1.176-.574,1.355,1.355,0,0,1,1.386.854,8.14,8.14,0,0,1,.406,2.646l4-.588a8.909,8.909,0,0,0-1.372-4.522q-1.2-1.778-4.284-1.778a6.45,6.45,0,0,0-4.522,1.5,5.494,5.494,0,0,0-1.638,4.27,6.564,6.564,0,0,0,.742,3.22,9,9,0,0,0,2.142,2.52l2.352,2.044a10.193,10.193,0,0,1,1.89,2.058,4.141,4.141,0,0,1,.6,2.282,2.265,2.265,0,0,1-.364,1.33,1.336,1.336,0,0,1-1.176.518,1.756,1.756,0,0,1-1.638-1.022,7.449,7.449,0,0,1-.6-3.178l-3.976.672a8.223,8.223,0,0,0,1.708,5.334,6.047,6.047,0,0,0,4.7,1.722h0Zm10.416-.308h4.648V42.413h3.444V39H164.772v3.416h3.5V61.677Zm10.192,0h4.592V39h-4.592v22.68Zm8.036,0h3.948V49.133l5.04,12.544H198.6V39H194.76V50.785L189.72,39H186.5v22.68Zm21.308,0.336a3.737,3.737,0,0,0,3.724-2.352l0.308,2.016h3.024V50.029H208.48v2.8h2.212v2.408a5.413,5.413,0,0,1-.49,2.534,1.762,1.762,0,0,1-1.694.91,1.719,1.719,0,0,1-1.68-.854,5.38,5.38,0,0,1-.448-2.45V45.3a6.357,6.357,0,0,1,.364-2.436,2.022,2.022,0,0,1,3.206-.1,5.723,5.723,0,0,1,.35,2.31v1.6h4.48V45.353a7.3,7.3,0,0,0-1.484-4.928q-1.485-1.708-4.984-1.708-3.641,0-5.138,2a9.694,9.694,0,0,0-1.5,5.866v7.588a10.1,10.1,0,0,0,1.414,5.81q1.413,2.03,4.718,2.03h0Z" transform="translate(-40 -19)"/>
</svg>
