<svg xmlns="http://www.w3.org/2000/svg" width="52.12" height="35.96" viewBox="0 0 52.12 35.96">
  <defs>
    <style>
      .cls-1 {
        fill: #f8636b;
        fill-rule: evenodd;
      }
    </style>
  </defs>
  <path id="quote-hover" class="cls-1" d="M1118.78,3259.36v-0.21q0.54-8.31,3.32-13.19a24.493,24.493,0,0,1,5.94-7.36,24.024,24.024,0,0,1,8.3-3.94l0.42,3.15a12.585,12.585,0,0,0-1.68.42,14.9,14.9,0,0,0-3.52,1.68,20.4,20.4,0,0,0-4.26,3.68,18,18,0,0,0-3.57,6.52,13.5,13.5,0,0,1,1.36-.79,8.308,8.308,0,0,1,1.53-.58c0.52-.14,1.07-0.26,1.63-0.36a8.69,8.69,0,0,1,1.68-.16,10.863,10.863,0,0,1,4.36.89,11.543,11.543,0,0,1,3.58,2.42,11.059,11.059,0,0,1,2.36,3.52,10.828,10.828,0,0,1,.84,4.31,11.263,11.263,0,0,1-.84,4.37,10.951,10.951,0,0,1-2.36,3.57,11.543,11.543,0,0,1-3.58,2.42,10.863,10.863,0,0,1-4.36.89,10.522,10.522,0,0,1-4.31-.89,11.631,11.631,0,0,1-3.52-2.42,11.443,11.443,0,0,1-2.42-3.57,10.785,10.785,0,0,1-.9-4.37h0Zm11.15-7.99a7.535,7.535,0,0,0-3.1.63,8.285,8.285,0,0,0-2.53,1.74,8.137,8.137,0,0,0-1.73,2.57,7.679,7.679,0,0,0-.63,3.05,8,8,0,0,0,.63,3.16,7.6,7.6,0,0,0,1.73,2.52,8.864,8.864,0,0,0,2.53,1.68,7.535,7.535,0,0,0,3.1.63,7.835,7.835,0,0,0,7.36-4.83,8,8,0,0,0,.63-3.16,7.679,7.679,0,0,0-.63-3.05,8.535,8.535,0,0,0-1.68-2.57,7.422,7.422,0,0,0-2.53-1.74,7.911,7.911,0,0,0-3.15-.63h0Zm-41,7.78q0.525-8.31,3.31-13.19a24.8,24.8,0,0,1,5.94-7.36,24.024,24.024,0,0,1,8.3-3.94l0.42,3.15a13.931,13.931,0,0,0-1.73.42,14.458,14.458,0,0,0-3.58,1.68,19.1,19.1,0,0,0-7.83,10.2c0.49-.28.98-0.54,1.47-0.79a8.589,8.589,0,0,1,1.53-.58c0.52-.14,1.07-0.26,1.63-0.36a8.69,8.69,0,0,1,1.68-.16,10.863,10.863,0,0,1,4.36.89,11.543,11.543,0,0,1,3.58,2.42,10.972,10.972,0,0,1,3.21,7.83,11.27,11.27,0,0,1-.85,4.37,10.794,10.794,0,0,1-2.36,3.57,11.543,11.543,0,0,1-3.58,2.42,11.125,11.125,0,0,1-8.72,0,11.543,11.543,0,0,1-3.58-2.42,10.951,10.951,0,0,1-2.36-3.57,11.449,11.449,0,0,1-.84-4.37v-0.21h0Zm11.14-7.78a7.569,7.569,0,0,0-3.1.63,8.123,8.123,0,0,0-2.52,1.74,8,8,0,0,0-1.74,2.57,7.679,7.679,0,0,0-.63,3.05,8,8,0,0,0,.63,3.16,7.478,7.478,0,0,0,1.74,2.52,8.679,8.679,0,0,0,2.52,1.68,7.942,7.942,0,0,0,6.2,0,8.864,8.864,0,0,0,2.53-1.68,7.6,7.6,0,0,0,1.73-2.52,8,8,0,0,0,.63-3.16,7.679,7.679,0,0,0-.63-3.05,8.137,8.137,0,0,0-1.73-2.57,8.285,8.285,0,0,0-2.53-1.74,7.535,7.535,0,0,0-3.1-.63h0Z" transform="translate(-1088.94 -3234.66)"/>
</svg>
