<svg xmlns="http://www.w3.org/2000/svg" width="52.124" height="35.96" viewBox="0 0 52.124 35.96">
  <defs>
    <style>
      .cls-1 {
        fill: #ffe4e5;
        fill-rule: evenodd;
      }
    </style>
  </defs>
  <path id="quote" class="cls-1" d="M726.785,3259.36v-0.21q0.528-8.31,3.312-13.19a24.722,24.722,0,0,1,5.94-7.36,24.057,24.057,0,0,1,8.306-3.94l0.421,3.15a12.686,12.686,0,0,0-1.683.42,14.852,14.852,0,0,0-3.522,1.68,20.517,20.517,0,0,0-4.258,3.68,18,18,0,0,0-3.575,6.52,13.854,13.854,0,0,1,1.367-.79,8.4,8.4,0,0,1,1.525-.58q0.788-.21,1.629-0.36a8.728,8.728,0,0,1,1.683-.16,10.9,10.9,0,0,1,4.363.89,11.509,11.509,0,0,1,3.575,2.42,10.892,10.892,0,0,1,3.206,7.83,11.412,11.412,0,0,1-.841,4.37,10.869,10.869,0,0,1-2.365,3.57,11.509,11.509,0,0,1-3.575,2.42,10.9,10.9,0,0,1-4.363.89,10.531,10.531,0,0,1-4.311-.89,11.562,11.562,0,0,1-5.94-5.99,10.864,10.864,0,0,1-.894-4.37h0Zm11.145-7.99a7.562,7.562,0,0,0-3.1.63,8.254,8.254,0,0,0-2.523,1.74,8.068,8.068,0,0,0-1.735,2.57,7.662,7.662,0,0,0-.631,3.05,7.978,7.978,0,0,0,.631,3.16,7.538,7.538,0,0,0,1.735,2.52,8.829,8.829,0,0,0,2.523,1.68,7.562,7.562,0,0,0,3.1.63,7.931,7.931,0,0,0,7.99-7.99,7.662,7.662,0,0,0-.631-3.05,8.5,8.5,0,0,0-1.682-2.57,7.471,7.471,0,0,0-2.523-1.74,7.927,7.927,0,0,0-3.154-.63h0Zm-41,7.78q0.527-8.31,3.312-13.19a24.722,24.722,0,0,1,5.94-7.36,24.049,24.049,0,0,1,8.306-3.94l0.42,3.15a13.765,13.765,0,0,0-1.734.42,14.453,14.453,0,0,0-3.575,1.68,19.532,19.532,0,0,0-4.206,3.68,19.8,19.8,0,0,0-3.627,6.52c0.491-.28.982-0.54,1.472-0.79a8.417,8.417,0,0,1,1.524-.58q0.789-.21,1.63-0.36a8.725,8.725,0,0,1,1.682-.16,10.9,10.9,0,0,1,4.364.89,11.5,11.5,0,0,1,3.574,2.42,10.887,10.887,0,0,1,3.207,7.83,11.412,11.412,0,0,1-.841,4.37,10.856,10.856,0,0,1-2.366,3.57,11.5,11.5,0,0,1-3.574,2.42,11.142,11.142,0,0,1-8.727,0,11.521,11.521,0,0,1-3.575-2.42,10.917,10.917,0,0,1-2.365-3.57,11.45,11.45,0,0,1-.841-4.37v-0.21h0Zm11.144-7.78a7.56,7.56,0,0,0-3.1.63,8.259,8.259,0,0,0-2.524,1.74,8.049,8.049,0,0,0-1.734,2.57,7.662,7.662,0,0,0-.631,3.05,7.978,7.978,0,0,0,.631,3.16,7.521,7.521,0,0,0,1.734,2.52,8.834,8.834,0,0,0,2.524,1.68,7.949,7.949,0,0,0,6.2,0,8.829,8.829,0,0,0,2.523-1.68,7.538,7.538,0,0,0,1.735-2.52,7.978,7.978,0,0,0,.631-3.16,7.662,7.662,0,0,0-.631-3.05,8.068,8.068,0,0,0-1.735-2.57,8.254,8.254,0,0,0-2.523-1.74,7.558,7.558,0,0,0-3.1-.63h0Z" transform="translate(-696.938 -3234.66)"/>
</svg>
